<svg xmlns="http://www.w3.org/2000/svg" version="1.1" xmlns:xlink="http://www.w3.org/1999/xlink" xmlns:svgjs="http://svgjs.dev/svgjs" width="100%" height="100%" viewBox="0 0 1000 600"><rect width="1000" height="600" x="0" y="0" fill="#96351e"/><g><rect width="333.3333333333333" height="333.3333333333333" rx="13.333333333333334" ry="13.333333333333334" y="229.7747684739619" fill="#dbb98f" transform="matrix(0.60225715599512,0,0,0.6022571559951199,0,61.24031014169141)" x="207.55262756347653"/><path d="M232.8479341084941 416.1042172791256L232.8479341084941 341.37110219516876Q230.40020770234457 341.15421504525676 227.51870699637112 339.6979727529906Q224.60622241183881 338.24173046072445 222.25144764136587 336.2587622329578Q219.92765674945178 334.2448101266322 218.59534997142106 331.8900353561593Q217.23205931483145 329.5662444642452 218.13059179303823 327.0875341795369L218.13059179303823 327.0875341795369Q218.81223712133303 325.32145310168215 222.93309296966066 325.8791629157415Q227.0539488179883 326.43687272980094 232.8479341084941 326.6537598797129L232.8479341084941 326.6537598797129Q239.54045187720664 326.8706470296249 248.03003460233273 326.43687272980094Q256.51961732745883 325.9721145514181 265.5359259880855 325.32145310168215Q274.583218527271 324.63980777338736 283.5995271878976 323.648323659504Q292.6468197270831 322.62585566706184 300.23786997400236 321.51043603894306L300.23786997400236 321.51043603894306Q301.7870639019451 321.29354888903106 304.2347903080946 321.7583070674139Q306.71350059280303 322.19208136723785 308.9443398490405 322.9666783312092Q311.17517910527806 323.74127529518057 312.8483085474562 324.8566949232993Q314.52143798963425 325.9721145514181 314.52143798963425 327.33540520800767L314.52143798963425 327.33540520800767Q314.52143798963425 328.6677119860384 313.4060183615155 330.6816640923639Q312.2905987333968 332.66463232013064 310.2766466270713 334.8025199406916Q308.26269452074575 336.9094236826937 305.35020993621333 338.70648863910725Q302.46870923023994 340.47256971696197 299.12245034588364 340.93732789534477L299.12245034588364 340.93732789534477Q293.32846505537793 341.83586037355155 288.0612057003726 342.3935701876109Q282.82493022392623 342.9512800016703 277.4647192332444 343.1681671515823Q272.1354921211215 343.3850543014943 266.3105229520569 343.5089898157297Q260.51653766155107 343.6019414514062 253.60713274292652 343.6019414514062L253.60713274292652 343.6019414514062Q253.8240198928385 353.85760525438707 254.0409070427505 363.6794947575439Q254.28877807122132 373.5013842607007 253.8240198928385 381.30932165753205L253.8240198928385 381.30932165753205Q260.51653766155107 381.09243450762006 266.0006841664683 380.7516118434727Q271.45384679282665 380.41078917932526 276.59717063359653 380.0699665151779Q281.7095105958075 379.7601277295893 286.9457860722539 379.29536955120653Q292.2130454272591 378.86159525138254 298.22391786767685 378.17994992308775L298.22391786767685 378.17994992308775Q299.55622464570763 377.9630627731758 301.7870639019451 377.6222401090284Q304.01790315818266 377.281417444881 306.37267792865555 377.18846580920444Q308.69646882056963 377.064530294969 310.71042092689515 377.5292884733518Q312.7243730332208 377.9630627731758 313.15814733304467 379.5122567011185L313.15814733304467 379.5122567011185Q314.05667981125146 382.20785413573884 312.50748588330873 385.7710001700071Q310.9273080768072 389.3341462042753 308.1387590065103 392.58745345295506Q305.35020993621333 395.80977682307594 302.00395105185714 398.04061607931345Q298.65769216750084 400.27145533555097 296.42685291126327 400.27145533555097L296.42685291126327 400.27145533555097L253.8240198928385 400.27145533555097Q253.8240198928385 407.6456184325583 253.48319722869113 416.5689754575084Q253.17335844310256 425.49233248245844 252.2748259648958 432.618624550995L252.2748259648958 432.618624550995Q251.376293486689 440.42656194782626 249.26938974468692 447.24301523077423Q247.13150212412594 454.02848463516335 244.68377571797646 459.17180847593323Q242.23604931182697 464.2841484381442 239.78832290567746 467.3205685369119Q237.30961262096912 470.32600475712076 235.54353154311443 470.32600475712076L235.54353154311443 470.32600475712076Q233.96335373661285 470.32600475712076 231.51562733046333 467.5374556868239Q229.06790092431385 464.748906616527 229.06790092431385 461.6195348820827L229.06790092431385 461.6195348820827Q229.06790092431385 461.4026477321707 229.74954625260864 458.7070502975503Q230.40020770234457 456.04243674148887 230.61709485225657 454.49324281354615L230.61709485225657 454.49324281354615Q231.29874018055136 449.1330318228643 231.73251448037533 444.8882404603013Q232.19727265875812 440.64344909773826 232.41415980867012 436.39865773517516Q232.6310469585821 432.184850251171 232.75498247281752 427.3823490745486Q232.8479341084941 422.57984789792613 232.8479341084941 416.1042172791256L232.8479341084941 416.1042172791256ZM332.58503918944643 348.96215244208804L332.58503918944643 348.96215244208804Q329.6725546049141 344.500473929613 326.45023123479325 338.70648863910725Q323.1969239861136 332.9125033486015 323.1969239861136 327.33540520800767L323.1969239861136 327.33540520800767Q323.1969239861136 325.53834025159415 323.7546338001729 323.9891463236514Q324.3123436142323 322.40896851714984 327.44171534867655 322.40896851714984L327.44171534867655 322.40896851714984Q330.78797423303286 322.40896851714984 333.70045881756516 323.52438814526863Q336.58195952353867 324.63980777338736 339.060669808247 326.43687272980094L339.060669808247 326.43687272980094Q343.0575901423392 329.5662444642452 346.06302636254804 332.57168068445407Q349.0994464613158 335.57711690466294 350.989463053406 339.3571500888432Q352.8794796454961 343.1681671515823 353.77801212370287 347.8467328139693Q354.67654460190965 352.52529847635634 354.67654460190965 358.5671547953329L354.67654460190965 358.5671547953329Q354.67654460190965 363.028833307808 354.5526090876742 367.80035060587153Q354.4286735734388 372.602851782494 354.21178642352675 378.6447081014706Q353.9948992736148 384.65558054188836 353.8709637593794 392.2466307888077Q353.77801212370287 399.837681035727 353.77801212370287 409.62858666032497L353.77801212370287 409.62858666032497Q353.77801212370287 421.0306539699834 353.096366795408 432.618624550995Q352.4457053456721 444.2065951320065 350.86552753917056 453.12995215695656L350.86552753917056 453.12995215695656Q366.2645151829212 453.3778231854274 380.08332502017026 453.8115974852514Q393.93311873597816 454.2453717850753 409.5489935296407 455.3607914131941L409.5489935296407 455.3607914131941Q416.6752855981773 455.82554959157693 421.4777867747997 456.94096921969566Q426.2802879514221 458.0563888478144 426.2802879514221 460.5041152539639L426.2802879514221 460.5041152539639Q426.2802879514221 462.0533091819066 425.04093280906795 463.97430965255563Q423.8325615452726 465.8643262446457 421.8186094389471 467.5374556868239Q419.80465733262156 469.210585129002 417.573818076384 470.32600475712076Q415.3429788201465 471.4414243852395 413.329026713821 471.4414243852395L413.329026713821 471.4414243852395Q394.36689303580215 471.4414243852395 376.086404686078 471.4414243852395Q357.774932457795 471.4414243852395 337.04671770192147 470.9766662068567L337.04671770192147 470.9766662068567Q335.2496527455079 470.9766662068567 333.4835716676532 469.5514077931494Q331.68650671123964 468.09516550088324 330.35419993320886 466.0812133945577Q329.0218931551782 464.06726128823215 328.1233606769714 461.74347039631806Q327.2248281987646 459.3886956258452 327.2248281987646 457.37474351951965L327.2248281987646 457.37474351951965Q327.2248281987646 454.92701711337014 329.5796029692375 454.1524201493988Q331.9033938611516 453.3778231854274 334.59899129577195 452.9130650070446L334.59899129577195 452.9130650070446Q334.13423311738916 447.8007250448336 333.70045881756516 440.8603362476502Q333.23570063918237 433.9509313290257 333.23570063918237 427.4753007102251L333.23570063918237 427.4753007102251Q333.23570063918237 417.9012822355391 332.9258618535938 398.72226140760824Q332.58503918944643 379.5122567011185 332.58503918944643 348.96215244208804ZM476.25728406685425 396.4914221513707L476.25728406685425 342.4865218232875Q468.2014756415522 342.70340897319943 459.95976394489685 342.70340897319943Q451.7180522482415 342.70340897319943 444.56077630114623 342.0527475234635L444.56077630114623 342.0527475234635Q443.4453566730275 342.0527475234635 441.1215657811134 340.93732789534477Q438.7667910106404 339.82190826722604 436.3190646044909 338.24173046072445Q433.8713381983415 336.69253653278173 431.9503377276925 334.8025199406916Q430.0603211356024 332.9125033486015 430.0603211356024 331.1154383921879L430.0603211356024 331.1154383921879Q430.0603211356024 329.7831316141572 431.17574076372114 329.0085346501858Q432.29116039183987 328.2029538076556 433.964289834018 327.7691795078316Q435.63741927619617 327.33540520800767 437.52743586828626 326.99458254386025Q439.44843633893527 326.6537598797129 440.78074311696605 326.6537598797129L440.78074311696605 326.6537598797129Q444.3438891512342 326.43687272980094 452.9264235120369 325.9721145514181Q461.5089578728396 325.53834025159415 472.0124927042913 324.9806304375347Q482.48504365718406 324.42292062347536 493.5462883026951 324.08209795932794Q504.57654906964717 323.74127529518057 513.0661317947734 323.30750099535663L513.0661317947734 323.30750099535663Q513.7167932445093 323.30750099535663 516.6292778290416 323.30750099535663Q519.5107785350151 323.30750099535663 522.5471986337828 323.74127529518057Q525.5526348539917 324.20603347356337 528.1242967743766 325.10456595177016Q530.6649748162026 325.9721145514181 530.6649748162026 327.98606665774366L530.6649748162026 327.98606665774366Q530.6649748162026 329.31837343577433 529.7974262165546 331.3323255420999Q528.898893738348 333.3462776484254 527.3187159318463 335.143342604839Q525.7695220039036 336.9094236826937 523.7555698975781 338.3656659749598Q521.7416177912526 339.82190826722604 519.7586495634858 340.25568256705L519.7586495634858 340.25568256705Q515.9476325007467 340.93732789534477 510.8352925385359 341.27815055949213Q505.691968697766 341.5879893450807 497.20238597263995 341.5879893450807L497.20238597263995 341.5879893450807L497.20238597263995 398.4743903791374Q497.20238597263995 405.63166632623273 496.0869663445211 415.8873301292136Q494.9715467164024 426.1429939321944 492.52382031025286 436.30570609949865Q490.07609390410335 446.437434388244 486.17212520568773 454.92701711337014Q482.2681565072721 463.4165998384962 476.9079455165903 466.7628587228525L476.9079455165903 466.7628587228525Q474.4602191104408 468.31205265079524 471.45478289023185 468.1881171365598Q468.44934667002303 468.09516550088324 467.3339270419042 467.1966330226765L467.3339270419042 467.1966330226765Q466.21850741378546 466.2981005444697 466.8691688635214 464.532019466615Q467.55081419181624 462.7349545102015 467.9845884916401 461.6195348820827L467.9845884916401 461.6195348820827Q470.6801859262605 454.71012996345814 472.35331536843864 446.56136990247944Q474.0264448106168 438.41260984150074 474.89399341026467 429.9540109949335Q475.7925258884716 421.46442826980734 476.0094130383835 412.8818939090047Q476.25728406685425 404.29935954820206 476.25728406685425 396.4914221513707L476.25728406685425 396.4914221513707Z " fill="#96351e" transform="matrix(0.60225715599512,0,0,0.6022571559951199,0,61.24031014169141)"/><path d="M635.2463254843028 390.68836452806266L635.2463254843028 336.02021950427223Q633.4557850792947 335.8615640253475 631.3479337164372 334.7963058097098Q629.2174172851618 333.7310475940721 627.4948720854071 332.2804832153314Q625.7949919540704 330.8072537681728 624.820394012104 329.08470856841825Q623.8231310017197 327.38482843708147 624.4804179858367 325.5716229636556L624.4804179858367 325.5716229636556Q624.9790494910287 324.27971406383966 627.9935035905993 324.68768529536044Q631.0079576901697 325.09565652688127 635.2463254843028 325.25431200580607L635.2463254843028 325.25431200580607Q640.1419802625527 325.4129674847308 646.3522090090363 325.09565652688127Q652.56243775552 324.75568050061395 659.1579726651067 324.27971406383966Q665.7761726431112 323.78108255864754 672.3717075526978 323.05580036927716Q678.9899075307022 322.307853111489 684.542849293069 321.49191064844734L684.542849293069 321.49191064844734Q685.6761027139602 321.3332551695226 687.4666431189684 321.6732311957899Q689.2798485923942 321.99054215363947 690.9117335184775 322.55716886408504Q692.5436184445608 323.1237955745306 693.7675321391233 323.9397380375723Q694.9914458336857 324.75568050061395 694.9914458336857 325.7529435109982L694.9914458336857 325.7529435109982Q694.9914458336857 326.7275414529646 694.1755033706442 328.20077090012313Q693.3595609076025 329.6513352788638 691.8863314604439 331.21522499969365Q690.4131020132853 332.75644965210563 688.2825855820099 334.0710236203394Q686.1747342191524 335.36293252015537 683.7269068300274 335.7029085464227L683.7269068300274 335.7029085464227Q679.4885390358944 336.3601955305396 675.6354774048644 336.76816676206045Q671.8050808422522 337.1761379935813 667.8840240059687 337.334793472506Q663.9856322381031 337.49344895143076 659.7245993755522 337.5841092251021Q655.4862315814192 337.6521044303555 650.4319213242446 337.6521044303555L650.4319213242446 337.6521044303555Q650.5905768031694 345.1542420766551 650.7492322820941 352.33906876510525Q650.9305528294367 359.52389545355527 650.5905768031694 365.2354926948468L650.5905768031694 365.2354926948468Q655.4862315814192 365.07683721592207 659.4979486913741 364.827521463326Q663.487000732911 364.57820571072995 667.2494020902697 364.32888995813386Q670.9891383792105 364.10223927395566 674.8195349418228 363.7622632476883Q678.6725965728527 363.4449522898388 683.0696198459106 362.9463207846466L683.0696198459106 362.9463207846466Q684.044217787877 362.7876653057219 685.6761027139602 362.53834955312584Q687.3079876400435 362.28903380052975 689.0305328397982 362.2210385952763Q690.7304129711349 362.130378321605 692.2036424182935 362.4703543478724Q693.676871865452 362.7876653057219 693.9941828233015 363.9209187266131L693.9941828233015 363.9209187266131Q694.6514698074184 365.8927796789637 693.5182163865271 368.4992625470134Q692.3622978972181 371.10574541506315 690.3224417396141 373.4855775989346Q688.2825855820099 375.84274471438823 685.834758192885 377.47462964047156Q683.38693080376 379.10651456655484 681.7550458776767 379.10651456655484L681.7550458776767 379.10651456655484L650.5905768031694 379.10651456655484Q650.5905768031694 384.50080084999684 650.3412610505733 391.02834055433004Q650.1146103663951 397.5558802586632 649.4573233822781 402.76884599476267L649.4573233822781 402.76884599476267Q648.8000363981613 408.4804432360542 647.2588117457493 413.4667582879754Q645.6949220249195 418.4304082714787 643.9043816199114 422.19280962883744Q642.1138412149033 425.9325459177783 640.3233008098953 428.15372262272507Q638.5100953364694 430.3522342592539 637.2181864366535 430.3522342592539L637.2181864366535 430.3522342592539Q636.0622679473445 430.3522342592539 634.2717275423364 428.3123781016498Q632.4811871373283 426.27252194404565 632.4811871373283 423.9833500338455L632.4811871373283 423.9833500338455Q632.4811871373283 423.82469455492077 632.9798186425204 421.8528336025701Q633.4557850792947 419.90363771863724 633.6144405582195 418.7703842977461L633.6144405582195 418.7703842977461Q634.1130720634116 414.8493274614626 634.4303830212612 411.74421308822076Q634.7703590475286 408.63909871497896 634.9290145264532 405.53398434173715Q635.0876700053781 402.4515350369131 635.1783302790494 398.93844943215043Q635.2463254843028 395.4253638273878 635.2463254843028 390.68836452806266L635.2463254843028 390.68836452806266ZM724.3653745031851 380.08111250852124L724.3653745031851 388.89782412305465Q724.3653745031851 393.95213438022927 724.5920251873633 398.5984734058831Q724.8413409399593 403.26747749995474 726.0652546345218 406.9392185836422Q727.2891683290843 410.6109596673296 729.7369957182092 412.96812678278326Q732.1848231073342 415.3252938982369 736.4231909014673 415.82392540342903L736.4231909014673 415.82392540342903Q739.3696497957842 416.1412363612786 742.3841038953548 415.5066144455795Q745.3985579949253 414.8493274614626 747.8463853840503 413.6934089721536L747.8463853840503 413.6934089721536Q748.5036723681671 413.53475349322883 750.2262175679217 412.7188110301872Q751.9260976992584 411.90286856714556 753.7393031726845 411.4269021303712L753.7393031726845 411.4269021303712L756.0058100144668 410.76961514625435L756.0058100144668 361.47309133748814Q753.7393031726845 360.0225269587474 752.1074182466011 357.892010527472Q750.4755333205178 355.7614940961966 749.8182463364009 352.9963557492221L749.8182463364009 352.9963557492221Q749.6595908574761 352.33906876510525 749.6595908574761 351.2738105494675Q749.6595908574761 350.23121740224764 749.8182463364009 349.2339543918634Q749.9769018153256 348.259356449897 750.3848730468465 347.5340742605266Q750.7928442783673 346.78612700273845 751.608786741409 346.78612700273845L751.608786741409 346.78612700273845Q752.4247292044506 346.78612700273845 753.5579826253418 347.1261030290058Q754.7139011146508 347.4434139868553 755.6884990566173 347.7833900131227L755.6884990566173 347.7833900131227Q757.9776709668174 348.5993324761643 761.49075657158 350.23121740224764Q764.9811771079249 351.8631023283309 767.1116935392004 353.31366670707166L767.1116935392004 353.31366670707166Q768.5849229863588 354.46958519638065 769.3102051757292 356.01080984879263Q770.0581524335173 357.57469956962245 770.0581524335173 360.0225269587474L770.0581524335173 360.0225269587474L770.0581524335173 415.66526992450423Q770.0581524335173 417.77312128736185 770.624779143963 419.99429799230853Q771.1914058544086 422.19280962883744 772.0073483174501 423.82469455492077L772.0073483174501 423.82469455492077Q772.9819462594166 426.1138664651209 773.7298935172048 427.97240207538243Q774.4551757065751 429.8536027540618 773.4805777646087 430.66954521710346L773.4805777646087 430.66954521710346Q772.9819462594166 431.1681767222955 771.8486928385255 431.1681767222955Q770.6927743492164 431.1681767222955 769.2422099704756 430.9188609696995Q767.7689805233172 430.66954521710346 766.3864113498299 430.26157398558263Q764.9811771079249 429.8536027540618 764.0065791659584 429.3776363172875L764.0065791659584 429.3776363172875Q759.9268668507502 427.2471198860121 757.8190154878927 423.82469455492077L757.8190154878927 423.82469455492077Q757.4790394616252 423.16740757080385 757.2297237090293 422.60078086035827Q757.003073024851 422.0341541499127 756.6630969985836 421.3768671657958L756.6630969985836 421.3768671657958L754.555245635726 423.32606304972865Q751.1101552362169 426.5898329018952 745.9878497737888 428.9696650857667Q740.8428792429428 431.3268322012203 734.9726265227265 431.3268322012203L734.9726265227265 431.3268322012203Q723.7080875190682 431.3268322012203 716.8405717884676 423.07674729713256Q709.9957211262849 414.8493274614626 709.6784101684353 397.21590423239587L709.6784101684353 397.21590423239587Q709.6784101684353 393.6348234223797 709.8370656473602 389.2151350809042Q709.9957211262849 384.8181118078464 709.9050608526136 380.23976798744604Q709.8370656473602 375.6840892354635 709.4290944158394 371.19640568873444Q709.0211231843185 366.70872214200534 707.8652046950095 362.9463207846466L707.8652046950095 362.9463207846466Q707.54789373716 361.9717228426802 706.9812670267144 360.74780914811777Q706.4146403162688 359.52389545355527 706.006669084748 358.3906420326641Q705.5986978532271 357.23472354335513 705.5986978532271 356.1694653277174Q705.5986978532271 355.1268721804975 706.4146403162688 354.46958519638065L706.4146403162688 354.46958519638065Q707.0492622319679 353.9709536911885 708.3638362002016 354.0616139648598Q709.6784101684353 354.12960917011327 711.1289745471761 354.5375804016341Q712.6022039943347 354.94555163315493 713.9847731678219 355.44418313834706Q715.390007409727 355.9428146435392 716.024629325426 356.41878108031347L716.024629325426 356.41878108031347Q718.6537772618935 358.05066600639674 720.2856621879769 360.58915366919297Q721.9175471140601 363.1049762635714 722.8014847823553 366.2100906368132Q723.7080875190682 369.3152050100551 724.0253984769176 372.89628582007117Q724.3653745031851 376.50003169850515 724.3653745031851 380.08111250852124L724.3653745031851 380.08111250852124ZM805.9596208073499 368.4992625470134L805.9596208073499 368.81657350486296Q806.9342187493163 367.36600912612226 808.8154194279957 366.0514351578885Q810.6739550382572 364.7368611896547 812.8951317432039 363.7622632476883Q815.0936433797328 362.7876653057219 817.5414707688577 362.2210385952763Q819.9892981579826 361.6544118848307 821.9384940419155 361.6544118848307L821.9384940419155 361.6544118848307Q835.1522289295067 361.6544118848307 841.9290843864359 370.2898029520215Q848.7059398433651 378.9478590876301 848.7059398433651 396.7399377956216L848.7059398433651 396.7399377956216Q848.7059398433651 400.81965011082985 848.2979686118442 405.0580179049628Q847.8899973803235 409.2963856990958 847.7993371066522 413.6934089721536Q847.7313419013988 418.1130973136292 848.1393131329196 422.35146510776224Q848.5472843644404 426.5898329018952 850.1791692905236 430.66954521710346L850.1791692905236 430.66954521710346Q850.6551357272979 431.64414315906987 851.2444275061614 432.8680568536323Q851.811054216607 434.0919705481948 852.2870206533812 435.3158842427573Q852.7856521585734 436.53979793731975 852.7856521585734 437.537060947704Q852.7856521585734 438.5116588896704 851.9697096955317 439.1689458737873L851.9697096955317 439.1689458737873Q851.3124227114149 439.64491231056155 850.0205138115989 439.5769171053081Q848.7059398433651 439.4862568316368 847.2327103962066 439.078285600116Q845.7594809490481 438.67031436859514 844.3769117755609 438.1716828634031Q842.9943426020736 437.69571642662874 842.3370556179567 437.19708492143667L842.3370556179567 437.19708492143667Q839.4132617920575 435.2478890375038 837.6907165923028 431.64414315906987Q835.9681713925482 428.0630623490537 835.1522289295067 423.5753788023247Q834.336286466465 419.08769525559563 834.1776309875402 414.282700751017Q834.0189755086154 409.4550411780206 834.0189755086154 405.0580179049628L834.0189755086154 405.0580179049628Q834.0189755086154 400.0037076477882 833.5203440034234 395.17604807479177Q833.044377566649 390.3710535702132 831.5711481194905 386.54065700760094Q830.0979186723321 382.687595376571 827.400775530611 380.17177278219253Q824.7262974573077 377.6332851193963 820.465264594757 377.157318682622L820.465264594757 377.157318682622Q817.382815289933 376.8173426563547 813.3710981799782 377.56528991414285Q809.3820461384413 378.29057210351317 806.4355872441241 381.7129974346046L806.4355872441241 381.7129974346046Q806.4355872441241 390.5297090491379 806.2769317651994 399.4144158689248Q806.1182762862746 408.3217877571294 805.7783002600073 417.6144658084371L805.7783002600073 417.6144658084371Q805.6196447810826 422.35146510776224 804.4863913601914 426.34051714929916Q803.3304728708823 430.3522342592539 801.6305927395456 433.36668835882443Q799.908047539791 436.381142458395 797.8681913821869 438.10368765814957Q795.8283352245828 439.80356778948635 793.7204838617251 439.80356778948635L793.7204838617251 439.80356778948635Q792.4059098934914 439.80356778948635 792.0885989356418 436.53979793731975Q791.7486229093745 433.27602808515314 791.8392831830458 428.9696650857667Q791.9072783882993 424.6406370179624 792.1565941408953 420.2209486764868Q792.4059098934914 415.82392540342903 792.4059098934914 413.3760980143041L792.4059098934914 413.3760980143041Q792.4059098934914 403.5847884578043 792.6552256460875 392.88687616459157Q792.9045413986835 382.2116289397967 792.0885989356418 369.97249199417195L792.0885989356418 369.97249199417195Q789.7994270254417 368.4992625470134 787.9182263467624 366.368746115738Q786.037025668083 364.2608947528804 785.379738683966 361.47309133748814L785.379738683966 361.47309133748814Q785.2210832050413 360.83846942178906 785.2210832050413 359.77321120615136Q785.2210832050413 358.70795299051366 785.379738683966 357.7333550485472Q785.5610592313087 356.7587571065808 785.9690304628296 356.01080984879263Q786.3770016943504 355.28552765942226 787.1929441573919 355.28552765942226L787.1929441573919 355.28552765942226Q788.0088866204336 355.28552765942226 789.1421400413249 355.6028386172718Q790.275393462216 355.9428146435392 791.2726564726001 356.26012560138867L791.2726564726001 356.26012560138867Q792.4059098934914 356.7587571065808 794.0377948195746 357.3933790222799Q795.669679745658 358.05066600639674 797.3015646717413 358.79861326418495Q798.9334495978246 359.52389545355527 800.4746742502366 360.33983791659693Q802.0385639710664 361.1557803796386 803.0131619130328 361.81306736375547L803.0131619130328 361.81306736375547Q804.4863913601914 362.9463207846466 805.2116735495617 364.5102105054765Q805.9596208073499 366.0514351578885 805.9596208073499 368.4992625470134L805.9596208073499 368.4992625470134ZM866.6566740302815 341.57316126663903L866.6566740302815 341.57316126663903Q864.526157599006 338.30939141447243 862.1689904835523 334.0710236203394Q859.8118233680987 329.8326558262064 859.8118233680987 325.7529435109982L859.8118233680987 325.7529435109982Q859.8118233680987 324.4383695427644 860.2197945996195 323.3051161218732Q860.6277658311403 322.1491976325642 862.8942726729226 322.1491976325642L862.8942726729226 322.1491976325642Q865.3421000620476 322.1491976325642 867.472616493323 322.9651400956059Q869.6031329245984 323.78108255864754 871.3936733296066 325.09565652688127L871.3936733296066 325.09565652688127Q874.3174671555057 327.38482843708147 876.5386438604525 329.5833400736103Q878.7371554969814 331.7818517101392 880.1197246704686 334.5469900571137Q881.5022938439558 337.334793472506 882.1595808280726 340.75721880359737Q882.8168678121896 344.1796441346887 882.8168678121896 348.5993324761643L882.8168678121896 348.5993324761643Q882.8168678121896 351.8631023283309 882.7262075385183 355.35352286467577Q882.6582123332648 358.8666084694384 882.4768917859222 363.286296810914Q882.3182363069975 367.68332008397175 882.250241101744 373.23626184633855Q882.1595808280726 378.7892036087053 882.1595808280726 385.95136522873753L882.1595808280726 385.95136522873753Q882.1595808280726 394.29211040649665 881.6609493228806 402.76884599476267Q881.1849828861064 411.2455815830287 880.0290643967974 417.77312128736185L880.0290643967974 417.77312128736185Q891.2936034004556 417.9544418347044 901.4248889832227 418.27175279255397Q911.533509497572 418.5890637504035 922.9567039801552 419.4050062134451L922.9567039801552 419.4050062134451Q928.1696697162545 419.7449822397125 931.6827553210171 420.56092470275416Q935.1958409257799 421.3768671657958 935.1958409257799 423.16740757080385L935.1958409257799 423.16740757080385Q935.1958409257799 424.30066099169505 934.289238189067 425.7058952336001Q933.4053005207718 427.0884644070873 931.9320710736133 428.3123781016498Q930.4588416264547 429.5362917962123 928.8269567003715 430.3522342592539Q927.1950717742882 431.1681767222955 925.7218423271296 431.1681767222955L925.7218423271296 431.1681767222955Q911.8508204554216 431.1681767222955 898.4784300889056 431.1681767222955Q885.1060397223898 431.1681767222955 869.9204438824479 430.8282006960282L869.9204438824479 430.8282006960282Q868.6058699142143 430.8282006960282 867.3139610143983 429.78560754880834Q865.9993870461644 428.72034933317065 865.0247891041981 427.2471198860121Q864.0501911622316 425.7738904388536 863.3929041781148 424.0740103075168Q862.7356171939979 422.35146510776224 862.7356171939979 420.8782356606037L862.7356171939979 420.8782356606037Q862.7356171939979 419.08769525559563 864.4581623937524 418.52106854515006Q866.1580425250893 417.9544418347044 868.1299034774399 417.6144658084371L868.1299034774399 417.6144658084371Q867.7899274511726 413.8747295194962 867.472616493323 408.7977541939037Q867.1553055354735 403.7434439367291 867.1553055354735 399.00644463740394L867.1553055354735 399.00644463740394Q867.1553055354735 392.00293849629645 866.9059897828774 377.9732611456637Q866.6566740302815 363.9209187266131 866.6566740302815 341.57316126663903ZM972.7291942256957 429.03766029102013L972.7291942256957 429.03766029102013Q964.2524586374296 428.8790048120954 957.9515696172747 425.207263728408Q951.6733456655376 421.5355226447205 947.7522888292541 415.73326512975774Q943.8538970613885 409.9536726832127 942.3806676142299 402.85950626843396Q940.9074381670714 395.74267478523734 941.8820361090378 388.89782412305465L941.8820361090378 388.89782412305465Q942.8566340510042 381.39568647675503 946.0524086979174 375.18545773027137Q949.2255182764127 368.99789405220554 954.1211730546626 364.7368611896547Q959.0168278329124 360.4984933955217 965.5443675372455 358.2999817589928Q972.0719072415787 356.1014701224639 979.7553654352209 356.5774365592382L979.7553654352209 356.5774365592382Q986.2829051395543 357.07606806443033 990.6799284126118 360.0225269587474Q995.0769516856697 362.9463207846466 997.864755101062 366.70872214200534Q1000.6298934480365 370.44845843094623 1001.9444674162703 374.21085978830496Q1003.2363763160862 377.9732611456637 1003.5763523423536 379.9224570295965L1003.5763523423536 379.9224570295965Q1005.2082372684367 381.23703099783023 1006.341490689328 383.34488236068785Q1007.497409178637 385.4753987919633 1007.497409178637 386.2913412550049L1007.497409178637 386.2913412550049Q1006.9987776734449 388.73916864412985 1000.7885489269613 390.0310775439458L1000.7885489269613 390.0310775439458Q998.3407215378363 390.5297090491379 992.6291242965448 391.1869960332548Q986.9175270552532 391.8442830173717 980.3219921456666 392.47890493307074Q973.7037921676621 393.13619191718766 967.425568215925 393.476167943455Q961.1473442641878 393.7934789013045 957.7249189330964 393.6348234223797L957.7249189330964 393.6348234223797Q957.3849429068291 396.7399377956216 957.7249189330964 400.6383295634872Q958.0422298909459 404.55938639977074 959.6741148170292 408.0724720045334Q961.3059997431126 411.585557609296 964.5697695952791 414.03338499842096Q967.8335394474457 416.4812123875459 973.3864812098126 416.63986786647064L973.3864812098126 416.63986786647064Q976.9675620198286 416.9571788243202 981.1379346087082 416.1412363612786Q985.2856421291699 415.3252938982369 986.9175270552532 414.6906719825378L986.9175270552532 414.6906719825378Q993.1277558017368 412.5601555512624 995.8928941487113 411.2455815830287Q998.6806975641036 409.9536726832127 999.8139509849948 411.2455815830287L999.8139509849948 411.2455815830287Q1000.7885489269613 412.2428445934129 999.5646352323987 415.66526992450423Q998.3407215378363 419.08769525559563 993.4450667595863 423.0087520918791L993.4450667595863 423.0087520918791Q988.5494119813366 426.74848838082 982.8378147400449 427.904406870129Q977.1262174987535 429.03766029102013 972.7291942256957 429.03766029102013ZM989.3653544443782 379.60514607174696L989.3653544443782 379.60514607174696Q988.8893880076039 377.157318682622 987.5068188341165 374.6188310198258Q986.1015845922116 372.08034335702956 983.9030729556827 370.221807746768Q981.7045613191538 368.3406070680887 978.8487626985079 367.36600912612226Q975.9929640778623 366.368746115738 972.7291942256957 367.0260330998549L972.7291942256957 367.0260330998549Q969.6240798524539 367.524664605047 967.2669127370002 369.3152050100551Q964.8870805531287 371.10574541506315 963.0965401481207 373.5535728041881Q961.3059997431126 376.00140019331303 960.1727463222214 378.7892036087053Q959.0168278329124 381.5543419556798 958.5408613961381 384.1608248237295L958.5408613961381 384.1608248237295Q967.3349079422536 382.86891592391356 974.6783901096285 381.7129974346046Q982.0218722770034 380.57974401371337 989.3653544443782 379.60514607174696ZM1066.063945970293 389.0564796019794L1066.063945970293 382.0529734608719Q1066.063945970293 378.6078830613627 1065.0893480283266 375.1174625250179Q1064.1147500863603 371.6043769202552 1061.984233655085 368.7485782996095Q1059.8763822922274 365.8927796789637 1056.453956961136 364.10223927395566Q1053.0088665616267 362.28903380052975 1047.9545563044521 362.28903380052975L1047.9545563044521 362.28903380052975Q1043.8748439892438 362.28903380052975 1040.044447426632 362.9463207846466Q1036.2140508640196 363.60360776876354 1033.2675919697026 364.4195502318052L1033.2675919697026 364.4195502318052Q1021.8443974871193 367.36600912612226 1020.5524885873033 363.60360776876354L1020.5524885873033 363.60360776876354Q1019.8952016031865 361.6544118848307 1021.8443974871193 359.02526394836315Q1023.81625843947 356.41878108031347 1027.805310481007 354.12960917011327Q1031.794362522544 351.8631023283309 1037.4379645585818 350.23121740224764Q1043.0589015262021 348.5993324761643 1049.74509670946 348.5993324761643L1049.74509670946 348.5993324761643Q1056.453956961136 348.5993324761643 1062.0748939287564 350.86583931794667Q1067.6958308963763 353.15501122814686 1071.7755432115846 357.1667283381016Q1075.855255526793 361.1557803796386 1078.1444274369933 366.5500666630806Q1080.4335993471932 371.92168787810476 1080.4335993471932 378.1319166245884L1080.4335993471932 378.1319166245884L1080.4335993471932 413.6934089721536Q1080.4335993471932 416.1412363612786 1080.5922548261178 420.06229319756204Q1080.750910305043 423.9833500338455 1081.5668527680846 427.0884644070873L1081.5668527680846 427.0884644070873Q1082.8814267363182 431.98411918533725 1081.906828794352 432.95871712730366L1081.906828794352 432.95871712730366Q1081.0908863313102 433.6160041114205 1079.3683411315556 433.52534383774923Q1077.668461000219 433.4573486324958 1076.0365760741356 432.80006164837886L1076.0365760741356 432.80006164837886Q1073.9060596428603 431.98411918533725 1071.866203485256 429.44563152254096Q1069.826347327652 426.9298089281626 1068.3531178804933 422.6687760656117L1068.3531178804933 422.6687760656117Q1067.5371754174516 423.66603907599597 1065.4973192598477 425.207263728408Q1063.4574631022433 426.74848838082 1060.3523487290017 428.3123781016498Q1057.2698994241778 429.8536027540618 1053.4168377931478 431.0095212433708Q1049.5864412305355 432.142774664262 1045.3480734364025 432.30143014318674L1045.3480734364025 432.30143014318674Q1036.8713378481366 432.46008562211154 1030.9784200595022 430.60155001184995Q1025.108167339286 428.72034933317065 1021.4364262555985 425.45657948100404Q1017.7646851719111 422.19280962883744 1016.0648050405744 417.86378156103314Q1014.3422598408197 413.53475349322883 1014.1836043618949 408.7977541939037L1014.1836043618949 408.7977541939037Q1014.0249488829702 403.9020994156538 1015.8154892879783 399.1877651847465Q1017.6060296929863 394.4507658854214 1021.5270865292698 390.84702000698746Q1025.4481433655533 387.2659391969713 1031.6357070436193 385.1354227656959Q1037.8459357901029 383.0275714028383 1046.4813268572939 383.1862268817631L1046.4813268572939 383.1862268817631Q1051.2183261566188 383.34488236068785 1056.9299233979104 384.9767672867711Q1062.6415206392016 386.60865221285445 1066.063945970293 389.0564796019794L1066.063945970293 389.0564796019794ZM1066.2452665176356 410.1123281621375L1066.2452665176356 397.87319121651274Q1061.6669226972353 396.24130629042946 1056.2046412085397 395.1080528695383Q1050.7423597198444 393.95213438022927 1045.1894179574779 394.11078985915407L1045.1894179574779 394.11078985915407Q1029.0292241755697 394.4507658854214 1029.0292241755697 407.347189815163L1029.0292241755697 407.347189815163Q1029.0292241755697 413.6934089721536 1033.0182762171066 415.82392540342903Q1037.0299933270612 417.9544418347044 1045.0307624785528 417.9544418347044L1045.0307624785528 417.9544418347044Q1047.6372453466024 417.9544418347044 1050.651699446173 417.29715485058756Q1053.6661535457438 416.63986786647064 1056.5219521663894 415.57460965083294Q1059.3777507870354 414.50935143519524 1061.9162384498313 413.05878705645455Q1064.4320610442096 411.585557609296 1066.2452665176356 410.1123281621375L1066.2452665176356 410.1123281621375ZM1101.648103386276 407.5058452940878L1101.648103386276 362.4703543478724Q1100.514849965385 361.6544118848307 1099.0416205182264 360.74780914811777Q1097.5683910710677 359.8412064114048 1096.1858218975808 358.8666084694384Q1094.8032527240935 357.892010527472 1093.805989713709 356.5774365592382Q1092.8313917717428 355.28552765942226 1092.8313917717428 353.8122982122637L1092.8313917717428 353.8122982122637Q1092.8313917717428 352.6790447913726 1094.6219321767508 351.7724420546596Q1096.4351376501768 350.86583931794667 1097.5683910710677 350.5485283600972L1097.5683910710677 350.5485283600972Q1099.6989075023434 349.89124137598026 1103.189328038688 349.16595918660994Q1106.7024136434507 348.4180119288217 1109.490217058843 348.91664343401385L1109.490217058843 348.91664343401385Q1110.4648150008097 349.0752989129386 1111.5300732164474 349.8232461707268Q1112.572666363667 350.5485283600972 1113.47926910038 351.5231263020636Q1114.385871837093 352.49772424403 1114.9524985475387 353.5629824596677Q1115.5191252579843 354.6282406753054 1115.5191252579843 355.44418313834706L1115.5191252579843 355.44418313834706L1115.5191252579843 359.52389545355527Q1119.4401820942676 356.1014701224639 1124.177181393593 354.31092971745585Q1128.8915156245002 352.49772424403 1131.6793190398926 352.49772424403L1131.6793190398926 352.49772424403Q1136.4163183392175 352.49772424403 1139.6800881913841 354.7868961542302Q1142.9438580435508 357.07606806443033 1144.7343984485587 360.83846942178906L1144.7343984485587 360.83846942178906Q1145.3916854326758 362.130378321605 1145.8676518694497 364.4195502318052Q1146.366283374642 366.70872214200534 1145.5503409116004 367.84197556289655L1145.5503409116004 367.84197556289655Q1144.8930539274834 368.81657350486296 1143.1705087277292 370.5391187046175Q1141.470628596392 372.26166390437214 1139.6800881913841 371.92168787810476L1139.6800881913841 371.92168787810476Q1138.3655142231505 371.76303239918 1137.0509402549164 370.6977741835423Q1135.7590313551004 369.63251596790457 1134.4444573868668 368.4992625470134Q1133.1525484870508 367.36600912612226 1131.7473142451458 366.368746115738Q1130.3647450716585 365.3941481737716 1128.8915156245002 365.3941481737716L1128.8915156245002 365.3941481737716Q1125.1517793355592 365.3941481737716 1121.480038251872 367.524664605047Q1117.8082971681843 369.63251596790457 1115.5191252579843 372.26166390437214L1115.5191252579843 372.26166390437214L1115.5191252579843 401.7942480527962Q1115.5191252579843 407.0072137888956 1115.428464984313 412.4015000723377Q1115.3604697790593 417.77312128736185 1114.9524985475387 422.10214935516615Q1114.5445273160176 426.43117742297045 1113.728584852976 429.19631576994493Q1112.9126423899343 431.98411918533725 1111.2807574638514 431.98411918533725L1111.2807574638514 431.98411918533725Q1109.8075280166927 431.98411918533725 1108.084982816938 430.3522342592539Q1106.3851026856014 428.72034933317065 1105.002533512114 425.6152349599288Q1103.597299270209 422.5101205866869 1102.6227013282428 417.9544418347044Q1101.648103386276 413.3760980143041 1101.648103386276 407.5058452940878L1101.648103386276 407.5058452940878ZM1173.768351091791 368.4992625470134L1173.768351091791 368.81657350486296Q1174.7656141021748 367.36600912612226 1176.6241497124365 366.0514351578885Q1178.5053503911158 364.7368611896547 1180.7038620276448 363.7622632476883Q1182.9250387325915 362.7876653057219 1185.3728661217165 362.2210385952763Q1187.8206935108415 361.6544118848307 1189.769889394774 361.6544118848307L1189.769889394774 361.6544118848307Q1202.9836242823653 361.6544118848307 1209.7604797392946 370.2898029520215Q1216.5373351962235 378.9478590876301 1216.5373351962235 396.7399377956216L1216.5373351962235 396.7399377956216Q1216.5373351962235 400.81965011082985 1216.1293639647029 405.0580179049628Q1215.7213927331823 409.2963856990958 1215.630732459511 413.6934089721536Q1215.5627372542576 418.1130973136292 1215.9707084857782 422.35146510776224Q1216.3786797172988 426.5898329018952 1218.0105646433822 430.66954521710346L1218.0105646433822 430.66954521710346Q1218.4865310801565 431.64414315906987 1219.0531577906022 432.8680568536323Q1219.6424495694655 434.0919705481948 1220.1184160062398 435.3158842427573Q1220.6170475114318 436.53979793731975 1220.6170475114318 437.537060947704Q1220.6170475114318 438.5116588896704 1219.8011050483901 439.1689458737873L1219.8011050483901 439.1689458737873Q1219.1438180642735 439.64491231056155 1217.82924409604 439.5769171053081Q1216.5373351962235 439.4862568316368 1215.0641057490652 439.078285600116Q1213.590876301907 438.67031436859514 1212.2083071284196 438.1716828634031Q1210.8257379549323 437.69571642662874 1210.1684509708152 437.19708492143667L1210.1684509708152 437.19708492143667Q1207.2219920764983 435.2478890375038 1205.5221119451617 431.64414315906987Q1203.799566745407 428.0630623490537 1202.9836242823653 423.5753788023247Q1202.1676818193237 419.08769525559563 1202.009026340399 414.282700751017Q1201.850370861474 409.4550411780206 1201.850370861474 405.0580179049628L1201.850370861474 405.0580179049628Q1201.850370861474 400.0037076477882 1201.351739356282 395.17604807479177Q1200.8757729195077 390.3710535702132 1199.4025434723494 386.54065700760094Q1197.9293140251907 382.687595376571 1195.2321708834697 380.17177278219253Q1192.5350277417488 377.6332851193963 1188.2966599476158 377.157318682622L1188.2966599476158 377.157318682622Q1185.1915455743738 376.8173426563547 1181.2024935328368 377.56528991414285Q1177.2134414912998 378.29057210351317 1174.2669825969829 381.7129974346046L1174.2669825969829 381.7129974346046Q1174.2669825969829 390.5297090491379 1174.1083271180582 399.4144158689248Q1173.9496716391332 408.3217877571294 1173.6096956128658 417.6144658084371L1173.6096956128658 417.6144658084371Q1173.4510401339412 422.35146510776224 1172.3177867130498 426.34051714929916Q1171.1618682237408 430.3522342592539 1169.4619880924042 433.36668835882443Q1167.7394428926495 436.381142458395 1165.6995867350456 438.10368765814957Q1163.6597305774412 439.80356778948635 1161.529214146166 439.80356778948635L1161.529214146166 439.80356778948635Q1160.23730524635 439.80356778948635 1159.8973292200826 436.53979793731975Q1159.5800182622334 433.27602808515314 1159.6706785359042 428.9696650857667Q1159.738673741158 424.6406370179624 1159.987989493754 420.2209486764868Q1160.23730524635 415.82392540342903 1160.23730524635 413.3760980143041L1160.23730524635 413.3760980143041Q1160.23730524635 403.5847884578043 1160.486620998946 392.88687616459157Q1160.7132716831243 382.2116289397967 1159.8973292200826 369.97249199417195L1159.8973292200826 369.97249199417195Q1157.6308223783003 368.4992625470134 1155.749621699621 366.368746115738Q1153.8684210209417 364.2608947528804 1153.2111340368247 361.47309133748814L1153.2111340368247 361.47309133748814Q1153.0524785579 360.83846942178906 1153.0524785579 359.77321120615136Q1153.0524785579 358.70795299051366 1153.2111340368247 357.7333550485472Q1153.3697895157493 356.7587571065808 1153.7777607472703 356.01080984879263Q1154.185731978791 355.28552765942226 1155.0016744418326 355.28552765942226L1155.0016744418326 355.28552765942226Q1155.8176169048743 355.28552765942226 1156.9735353941833 355.6028386172718Q1158.1067888150747 355.9428146435392 1159.081386757041 356.26012560138867L1159.081386757041 356.26012560138867Q1160.23730524635 356.7587571065808 1161.8691901724333 357.3933790222799Q1163.5010750985166 358.05066600639674 1165.1329600246 358.79861326418495Q1166.7648449506833 359.52389545355527 1168.3060696030952 360.33983791659693Q1169.8699593239253 361.1557803796386 1170.8445572658916 361.81306736375547L1170.8445572658916 361.81306736375547Q1172.3177867130498 362.9463207846466 1173.0430689024206 364.5102105054765Q1173.768351091791 366.0514351578885 1173.768351091791 368.4992625470134L1173.768351091791 368.4992625470134ZM1260.099596695281 376.34137621958035L1260.099596695281 336.8361619673139Q1254.2293439750642 336.9948174462387 1248.2004357759233 336.9948174462387Q1242.1488625083643 336.9948174462387 1236.935896772265 336.51885100946436L1236.935896772265 336.51885100946436Q1236.1199543092234 336.51885100946436 1234.3974091094688 335.7029085464227Q1232.6975289781321 334.8869660833811 1230.8843235047061 333.7310475940721Q1229.0937830996982 332.5977941731809 1227.7112139262108 331.21522499969365Q1226.3286447527234 329.8326558262064 1226.3286447527234 328.5180818579727L1226.3286447527234 328.5180818579727Q1226.3286447527234 327.54348391600627 1227.1445872157651 326.97685720556063Q1227.9605296788068 326.3875654266972 1229.1844433733695 326.0702544688477Q1230.4083570679318 325.7529435109982 1231.7909262414191 325.5036277584021Q1233.1734954149065 325.25431200580607 1234.1480933568728 325.25431200580607L1234.1480933568728 325.25431200580607Q1236.7772412933405 325.09565652688127 1243.0554652450774 324.75568050061395Q1249.3336891968147 324.4383695427644 1256.994482322039 324.0303983112436Q1264.6779405156813 323.6224270797228 1272.746704872426 323.3731113271267Q1280.8381342975895 323.1237955745306 1287.025697975655 322.80648461668113L1287.025697975655 322.80648461668113Q1287.5243294808474 322.80648461668113 1289.6321808437046 322.80648461668113Q1291.7626972749804 322.80648461668113 1293.9612089115094 323.1237955745306Q1296.159720548038 323.463771600798 1298.0409212267173 324.12105858491486Q1299.9221219053966 324.75568050061395 1299.9221219053966 326.2289099477725L1299.9221219053966 326.2289099477725Q1299.9221219053966 327.2035078897389 1299.26483492128 328.6767373368974Q1298.607547937163 330.14996678405595 1297.474294516272 331.46454075228974Q1296.3410410953807 332.75644965210563 1294.867811648222 333.8217078677434Q1293.3945822010637 334.8869660833811 1291.921352753905 335.2042770412306L1291.921352753905 335.2042770412306Q1289.1562144069308 335.7029085464227 1285.3938130495717 335.9522242990188Q1281.6540767606311 336.17887498319703 1275.4438480141475 336.17887498319703L1275.4438480141475 336.17887498319703L1275.4438480141475 377.7919405983211Q1275.4438480141475 383.0275714028383 1274.6279055511054 390.5297090491379Q1273.8119630880642 398.03184669543754 1272.0214226830558 405.46598913648364Q1270.2308822780478 412.8774665091119 1267.3750836574022 419.08769525559563Q1264.5192850367562 425.29792400207924 1260.598228200473 427.74575139120424L1260.598228200473 427.74575139120424Q1258.807687795465 428.8790048120954 1256.586511090518 428.7883445384241Q1254.3879994539893 428.72034933317065 1253.5720569909477 428.0630623490537L1253.5720569909477 428.0630623490537Q1252.756114527906 427.40577536493686 1253.254746033098 426.1138664651209Q1253.7307124698723 424.7992924968872 1254.0706884961396 423.9833500338455L1254.0706884961396 423.9833500338455Q1256.0198843800727 418.92903977667083 1257.243798074635 412.96812678278326Q1258.4677117691976 407.0072137888956 1259.1249987533142 400.81965011082985Q1259.7822857374313 394.60942136434613 1259.940941216356 388.331197412609Q1260.099596695281 382.0529734608719 1260.099596695281 376.34137621958035L1260.099596695281 376.34137621958035ZM1306.1323506518806 393.6348234223797L1306.1323506518806 393.6348234223797Q1306.1323506518806 385.95136522873753 1308.9881492725262 378.9478590876301Q1311.8439478931718 371.92168787810476 1317.0569136292715 366.5500666630806Q1322.2698793653708 361.1557803796386 1329.4547060538212 357.9826708011433Q1336.639532742271 354.7868961542302 1345.2975888778797 354.7868961542302L1345.2975888778797 354.7868961542302Q1352.459750497912 354.7868961542302 1358.4206634917996 357.892010527472Q1364.3815764856868 360.9971249007138 1368.6199442798202 366.2100906368132Q1372.8583120739531 371.4457214413305 1375.2381442578244 378.1319166245884Q1377.595311373278 384.8181118078464 1377.595311373278 392.00293849629645L1377.595311373278 392.00293849629645Q1377.595311373278 399.34642066367127 1374.898168231557 406.59924255737485Q1372.2236901582537 413.8747295194962 1367.3280353800042 419.49566648711647Q1362.4323806017542 425.11660345473666 1355.5648648711535 428.6296890594993Q1348.720014208971 432.142774664262 1340.4019340996297 432.142774664262L1340.4019340996297 432.142774664262Q1332.5598204270627 432.142774664262 1326.190936201654 429.2869760436162Q1319.8220519762458 426.43117742297045 1315.3343684295169 421.2862068921245Q1310.846684882788 416.1412363612786 1308.4895177673343 409.0470699464998Q1306.1323506518806 401.952903531721 1306.1323506518806 393.6348234223797ZM1344.9576128516123 368.81657350486296L1344.9576128516123 368.81657350486296Q1339.585991636588 368.81657350486296 1335.0076478161877 370.85642966246706Q1330.429303995787 372.89628582007117 1327.0068786646957 376.40937142483386Q1323.5844533336044 379.9224570295965 1321.703252654925 384.56879605525035Q1319.8220519762458 389.2151350809042 1319.8220519762458 394.29211040649665L1319.8220519762458 394.29211040649665Q1319.8220519762458 398.53047820062966 1321.3859416970759 402.6781857210913Q1322.9271663494878 406.8485583099709 1325.7149697648802 410.27098364106223Q1328.4801081118544 413.6934089721536 1332.4691601533914 415.82392540342903Q1336.4808772633464 417.9544418347044 1341.2178765626713 417.9544418347044L1341.2178765626713 417.9544418347044Q1345.9322107935786 417.9544418347044 1350.261238861383 415.57460965083294Q1354.5902669291872 413.2174425353793 1357.7633765076826 409.4550411780206Q1360.9591511545955 405.71530488907973 1362.8403518332748 400.8876453160833Q1364.6988874435365 396.0826508115047 1364.6988874435365 391.1869960332548L1364.6988874435365 391.1869960332548Q1364.6988874435365 387.2659391969713 1363.3163182700491 383.34488236068785Q1361.9337490965622 379.4238255244044 1359.3952614337659 376.1600556722378Q1356.8794388393871 372.89628582007117 1353.2076977556999 370.85642966246706Q1349.5359566720126 368.81657350486296 1344.9576128516123 368.81657350486296ZM1396.0446770653866 465.4377601700448L1398.6511599334362 462.17399031787824Q1399.3084469175533 461.35804785483657 1399.716418149074 460.70076087071965Q1400.124389380595 460.0434738866028 1400.2830448595196 459.72616292875324L1400.2830448595196 459.72616292875324Q1401.914929785603 456.62104855551144 1404.0454462168782 452.1333650087824Q1406.1532975797359 447.6456814620533 1408.1251585320865 443.06733764165295Q1410.0743544160196 438.5116588896704 1411.7062393421024 434.34128630079084Q1413.3381242681858 430.1935787803292 1414.1540667312274 427.56443084386166L1414.1540667312274 427.56443084386166Q1413.6554352260355 426.1138664651209 1412.2048708472948 422.60078086035827Q1410.7316414001361 419.08769525559563 1408.6011249688609 414.50935143519524Q1406.4932736060032 409.9536726832127 1403.9547859432068 404.7180418786955Q1401.416298280411 399.50507614259607 1398.8098154123609 394.4507658854214Q1396.2033325443113 389.39645562824677 1393.664844881515 384.9767672867711Q1391.1490222871366 380.57974401371337 1389.0185058558613 377.6332851193963L1389.0185058558613 377.6332851193963Q1388.3612188717443 376.6586871774299 1387.4772812034494 375.5934289617922Q1386.5706784667364 374.5281707461545 1385.686740798441 373.304257051592Q1384.7801380617284 372.08034335702956 1384.281506556536 370.94708993613835Q1383.8055401197616 369.8138365152472 1384.1228510776114 368.81657350486296L1384.1228510776114 368.81657350486296Q1384.4628271038787 367.68332008397175 1387.7265969560453 367.68332008397175Q1390.990366808212 367.68332008397175 1394.8887585760776 368.4992625470134Q1398.8098154123609 369.3152050100551 1402.4135612907949 370.94708993613835Q1405.9946421008112 372.5789748622217 1406.9692400427775 374.5281707461545L1406.9692400427775 374.5281707461545Q1412.0235502999521 383.84351386587997 1415.7859516573108 393.6348234223797Q1419.5483530146698 403.42613297887954 1420.9989173934105 411.2455815830287L1420.9989173934105 411.2455815830287Q1423.2880893036104 406.0326158469292 1425.5772612138107 399.59573641626736Q1427.8664331240107 393.13619191718766 1429.8156290079437 386.69931248652574Q1431.7874899602944 380.23976798744604 1433.4193748863777 374.3695152672297Q1435.051259812461 368.4992625470134 1436.0258577544273 364.57820571072995L1436.0258577544273 364.57820571072995Q1435.68588172816 363.60360776876354 1435.5272262492354 361.1557803796386Q1435.3685707703103 358.70795299051366 1435.6178865229062 356.01080984879263Q1435.8672022755027 353.31366670707166 1436.4338289859484 351.04715986528925Q1437.0004556963936 348.7579879550891 1438.3150296646277 348.259356449897L1438.3150296646277 348.259356449897Q1439.7655940433683 347.6020694657801 1441.8961104746436 348.82598316034256Q1444.0266269059189 350.049896854905 1446.0664830635233 352.02175780725565Q1448.1063392211272 353.9709536911885 1449.7382241472105 356.1694653277174Q1451.3701090732939 358.3906420326641 1451.8460755100682 359.52389545355527L1451.8460755100682 359.52389545355527Q1453.4779604361515 363.4449522898388 1452.5033624941848 366.86737762093014Q1451.5287645522185 370.2898029520215 1450.2141905839849 374.0522043093802L1450.2141905839849 374.0522043093802Q1448.7409611368262 378.9478590876301 1446.1344782687765 386.4499967339297Q1443.527995400727 393.95213438022927 1440.1055700696356 402.6781857210913Q1436.6831447385443 411.4269021303712 1432.8300831075144 420.6289199080076Q1428.999686544902 429.8536027540618 1425.0786297086188 438.4209986159991Q1421.1802379407527 446.9883944779364 1417.3271763097227 454.0825608927152Q1413.4967797471108 461.1993923759118 1410.3916653738688 465.4377601700448L1410.3916653738688 465.4377601700448Q1409.5757229108272 466.571013590936 1407.5358667532232 467.8855875591698Q1405.4960105956188 469.1774964589857 1403.0481832064938 470.1747594693699Q1400.6003558173688 471.1493574113363 1398.2431887019156 471.3986731639324Q1395.8860215864615 471.62532384811067 1394.4127921393033 470.65072590614426L1394.4127921393033 470.65072590614426Q1393.438194197337 469.99343892202734 1394.072816113036 468.54287454328664Q1394.7301030971526 467.0696450961281 1396.0446770653866 465.4377601700448L1396.0446770653866 465.4377601700448Z " fill="#dbb98f" transform="matrix(0.60225715599512,0,0,0.6022571559951199,0,61.24031014169141)"/></g></svg>